<?xml version="1.0" standalone="no"?>
<!DOCTYPE svg PUBLIC "-//W3C//DTD SVG 20010904//EN"
 "http://www.w3.org/TR/2001/REC-SVG-20010904/DTD/svg10.dtd">
<svg version="1.0" xmlns="http://www.w3.org/2000/svg"
 width="1000.000000pt" height="1000.000000pt" viewBox="0 0 1000.000000 1000.000000"
 preserveAspectRatio="xMidYMid meet">
<metadata>
Created by potrace 1.14, written by Peter Selinger 2001-2017
</metadata>
<g transform="translate(0.000000,1000.000000) scale(0.100000,-0.100000)"
fill="#000000" stroke="none">
<path d="M4738 9815 c-1 -1 -48 -6 -103 -9 -55 -3 -109 -8 -120 -10 -11 -2
-51 -7 -90 -10 -38 -4 -77 -9 -85 -11 -8 -2 -35 -6 -60 -9 -47 -6 -88 -13
-130 -21 -14 -3 -36 -7 -50 -10 -141 -27 -148 -29 -277 -60 -106 -27 -379
-107 -418 -124 -11 -5 -99 -39 -195 -77 -487 -190 -1028 -524 -1411 -870 -154
-139 -383 -376 -511 -529 -18 -22 -35 -42 -39 -45 -14 -13 -212 -285 -266
-365 -133 -201 -301 -506 -396 -721 -197 -447 -341 -996 -382 -1457 -4 -37
-10 -109 -14 -160 -9 -96 -7 -664 2 -707 3 -14 8 -56 12 -95 3 -38 7 -86 10
-105 2 -19 7 -55 10 -80 7 -57 10 -75 29 -180 24 -133 25 -140 47 -235 12 -49
23 -99 25 -110 9 -49 87 -302 132 -430 182 -516 466 -1017 821 -1450 92 -112
144 -168 316 -341 290 -292 578 -519 920 -725 298 -179 684 -355 1010 -459
234 -74 531 -144 750 -176 22 -3 49 -7 61 -9 11 -2 52 -6 90 -10 38 -4 78 -9
89 -11 134 -25 837 -25 970 0 11 2 50 7 87 10 37 4 77 9 90 11 13 2 41 6 63
10 87 12 252 43 330 61 11 3 31 7 45 10 64 12 268 70 395 111 316 102 722 287
980 446 361 222 628 431 911 712 182 181 245 250 393 430 106 130 303 422 408
606 92 160 210 402 273 559 12 30 28 69 36 86 7 17 40 111 73 210 105 314 188
683 217 964 2 25 6 56 9 70 27 146 27 784 0 1000 -4 33 -14 115 -21 165 -5 40
-40 248 -49 295 -8 39 -12 60 -30 135 -9 39 -19 80 -21 92 -7 38 -92 315 -128
418 -178 510 -474 1033 -830 1465 -94 115 -135 159 -316 341 -283 284 -583
521 -915 720 -129 77 -133 80 -315 172 -310 158 -656 287 -995 371 -154 38
-230 54 -440 91 -16 2 -52 7 -80 10 -27 3 -57 8 -65 10 -8 2 -49 7 -90 10 -41
4 -93 9 -115 12 -46 5 -641 13 -647 8z m648 -149 c17 -2 58 -7 90 -10 131 -15
150 -17 174 -21 14 -3 43 -7 65 -11 204 -29 507 -100 715 -168 285 -93 552
-205 770 -326 52 -29 109 -60 125 -68 182 -94 571 -373 770 -552 416 -376 720
-751 982 -1214 263 -463 460 -1019 538 -1516 3 -19 7 -46 10 -60 2 -14 7 -45
10 -70 3 -25 7 -61 10 -80 24 -190 29 -281 29 -555 1 -244 -5 -386 -19 -500
-21 -168 -41 -311 -50 -351 -3 -12 -7 -39 -11 -60 -11 -75 -94 -400 -133 -519
-202 -627 -492 -1143 -926 -1652 -128 -150 -398 -412 -560 -545 -368 -301
-799 -559 -1202 -719 -71 -28 -137 -54 -148 -59 -50 -22 -370 -124 -422 -135
-10 -2 -65 -15 -123 -28 -130 -31 -297 -64 -370 -72 -30 -4 -57 -8 -60 -10 -3
-1 -34 -6 -70 -9 -36 -4 -78 -9 -95 -11 -106 -13 -263 -20 -485 -20 -275 0
-442 10 -615 35 -38 6 -86 13 -105 16 -19 2 -44 7 -56 9 -12 3 -39 7 -60 11
-21 3 -91 17 -154 30 -564 120 -1114 353 -1600 677 -116 77 -335 238 -350 257
-3 3 -15 13 -28 22 -100 68 -415 376 -571 558 -45 52 -89 104 -99 115 -9 11
-56 72 -103 135 -339 453 -582 933 -743 1470 -37 122 -93 348 -110 440 -29
165 -30 170 -45 280 -29 213 -36 337 -35 625 0 143 3 298 8 345 4 47 7 92 8
100 1 34 37 308 47 350 5 25 12 65 16 90 4 25 27 128 52 229 255 1039 854
1951 1713 2608 357 273 779 504 1217 667 103 38 361 120 410 131 10 2 77 17
148 34 72 17 148 33 169 37 21 3 48 8 60 10 134 26 319 49 481 60 55 4 102 8
104 10 4 4 588 -5 627 -10z"/>
<path d="M1930 6660 c-9 -6 -11 -3330 -1 -3331 23 -3 118 -5 126 -2 7 2 10
512 9 1573 -1 864 0 1570 2 1570 2 0 255 -314 561 -697 307 -384 564 -705 570
-713 7 -8 125 -155 262 -327 137 -172 263 -329 279 -350 17 -21 55 -67 83
-103 28 -36 64 -81 80 -100 16 -19 78 -98 140 -175 61 -77 120 -152 132 -167
12 -14 36 -43 52 -64 17 -21 104 -130 195 -243 l165 -206 73 -1 72 0 1 35 c0
49 0 3194 0 3256 l-1 51 -70 0 -70 -1 -2 -1569 -3 -1570 -560 700 c-308 384
-565 706 -572 714 -6 8 -27 33 -45 56 -18 22 -327 407 -685 855 l-653 815 -66
0 c-36 -1 -69 -3 -74 -6z"/>
<path d="M5405 6660 c-1 -3 -2 -753 -2 -1668 l0 -1663 966 3 966 3 79 23 c276
78 506 283 606 542 16 43 32 90 34 106 3 16 10 52 15 79 10 53 8 213 -4 279
-26 150 -113 315 -231 443 -93 99 -262 201 -408 244 l-69 21 53 29 c118 64
221 159 299 275 279 414 129 969 -325 1197 -71 36 -174 69 -254 83 -49 8
-1720 12 -1725 4z m1675 -121 c193 -27 367 -128 484 -283 123 -163 169 -338
143 -535 -40 -303 -301 -573 -602 -621 -58 -9 -835 -15 -1497 -10 l-76 0 0
729 0 729 742 0 c408 -1 771 -5 806 -9z m255 -1582 c214 -58 403 -193 504
-361 37 -62 78 -168 87 -225 3 -20 8 -39 10 -43 6 -10 6 -198 -1 -228 -2 -14
-7 -38 -11 -55 -18 -91 -69 -197 -137 -285 -96 -125 -187 -194 -337 -257 -127
-53 -137 -54 -1034 -54 -457 0 -843 0 -857 0 l-27 1 0 766 0 765 871 -4 c765
-3 879 -6 932 -20z"/>
</g>
</svg>
